<svg version="1.1" id="Layer_1" xmlns="http://www.w3.org/2000/svg" xmlns:xlink="http://www.w3.org/1999/xlink" x="0px" y="0px"
	 width="100%" viewBox="0 0 1504 1128" enable-background="new 0 0 1504 1128" xml:space="preserve">
<path fill="#000000" opacity="1.000000" stroke="none" 
	d="
M884.000000,1129.000000 
	C589.333313,1129.000000 295.166656,1129.000000 1.000000,1129.000000 
	C1.000000,753.000000 1.000000,377.000000 1.000000,1.000000 
	C502.333344,1.000000 1003.666687,1.000000 1505.000000,1.000000 
	C1505.000000,377.000000 1505.000000,753.000000 1505.000000,1129.000000 
	C1298.166626,1129.000000 1091.333374,1129.000000 884.000000,1129.000000 
M1036.527344,924.020203 
	C1042.984863,920.893616 1049.947754,918.497192 1055.776978,914.462646 
	C1063.736938,908.953186 1071.078369,902.462891 1078.225830,895.893494 
	C1084.377075,890.239868 1090.719116,884.473511 1095.484009,877.706055 
	C1102.879761,867.201843 1109.726929,856.162842 1115.444824,844.672913 
	C1120.019775,835.479675 1122.737183,825.332947 1125.932373,815.496765 
	C1127.206177,811.575256 1127.580200,807.356628 1128.306152,803.263062 
	C1129.564331,796.170471 1131.842163,789.071411 1131.852539,781.972412 
	C1132.062134,637.663330 1132.009766,493.353912 1132.008789,349.044556 
	C1132.008789,347.711517 1132.196533,346.340881 1131.955688,345.051453 
	C1130.020264,334.688171 1128.355591,324.255524 1125.898315,314.014404 
	C1123.942383,305.862549 1121.753784,297.599670 1118.283447,290.020172 
	C1113.931519,280.515320 1108.233765,271.618530 1102.993530,262.530426 
	C1094.137939,247.172363 1081.211792,235.315063 1068.093750,223.915298 
	C1058.793823,215.833603 1048.021606,209.693848 1036.604980,204.430206 
	C1026.780151,199.900452 1017.279541,195.012802 1006.572571,192.979370 
	C1003.127930,192.325150 999.601379,191.925171 996.266479,190.904785 
	C988.016663,188.380554 979.628296,186.993637 971.010498,186.993362 
	C843.531677,186.989395 716.052429,186.823456 588.574463,187.149612 
	C566.451416,187.206207 544.193542,184.564285 522.164368,188.979736 
	C515.105103,190.394653 507.945892,191.365097 500.953033,193.042007 
	C493.714111,194.777893 486.220184,196.268555 479.554688,199.394913 
	C468.147156,204.745514 456.529327,210.234528 446.424469,217.615784 
	C435.655243,225.482407 426.063873,235.163101 416.862671,244.905975 
	C410.406830,251.741928 404.977692,259.705750 399.997284,267.729065 
	C395.658386,274.718903 392.547272,282.476959 388.985352,289.939301 
	C387.909363,292.193512 387.203827,294.621490 386.213776,296.920471 
	C384.863037,300.057007 382.966064,303.027588 382.081726,306.280975 
	C380.358673,312.619904 379.011963,319.075287 377.812378,325.538696 
	C376.373230,333.293060 374.164032,341.104431 374.151855,348.894012 
	C373.930756,490.536835 374.070221,632.180237 373.849945,773.822998 
	C373.830750,786.170044 375.694885,798.182800 378.277374,809.996094 
	C380.750031,821.306763 384.832550,832.369568 389.237762,843.119141 
	C392.498047,851.074829 396.816406,858.767395 401.736847,865.829285 
	C407.938446,874.730042 414.651581,883.431519 422.180298,891.216736 
	C436.450195,905.972595 453.227295,917.325500 471.702820,926.531128 
	C484.246643,932.781128 497.373077,936.797302 510.793549,939.767090 
	C519.483948,941.690125 528.679688,941.313416 537.643982,942.029541 
	C539.225708,942.155823 540.773376,942.665222 542.353638,942.862915 
	C544.856873,943.176025 547.394165,943.693909 549.880554,943.539124 
	C552.733948,943.361389 555.547180,942.075073 558.378418,942.073364 
	C685.857178,941.995361 813.336060,941.984314 940.814819,942.086365 
	C945.799316,942.090332 950.772217,943.386292 955.770996,943.868286 
	C958.575989,944.138794 962.036011,945.024048 964.131531,943.800598 
	C969.578125,940.620789 975.196716,942.705322 980.665405,942.020142 
	C981.485718,941.917297 982.343567,942.063354 983.150574,941.913574 
	C990.036804,940.635864 996.927002,939.374390 1003.790649,937.982727 
	C1006.772095,937.378296 1009.771851,936.696167 1012.625427,935.667053 
	C1017.407593,933.942322 1022.187683,932.136292 1026.760620,929.932739 
	C1029.956543,928.392700 1032.805420,926.132507 1035.719360,924.199829 
	C1035.719360,924.199829 1035.723267,924.289978 1036.527344,924.020203 
z"/>
<path fill="#F8FAFB" opacity="1.000000" stroke="none" 
	d="
M1035.809326,924.193970 
	C1032.805420,926.132507 1029.956543,928.392700 1026.760620,929.932739 
	C1022.187683,932.136292 1017.407593,933.942322 1012.625427,935.667053 
	C1009.771851,936.696167 1006.772095,937.378296 1003.790649,937.982727 
	C996.927002,939.374390 990.036804,940.635864 983.150574,941.913574 
	C982.343567,942.063354 981.485718,941.917297 980.665405,942.020142 
	C975.196716,942.705322 969.578125,940.620789 964.131531,943.800598 
	C962.036011,945.024048 958.575989,944.138794 955.770996,943.868286 
	C950.772217,943.386292 945.799316,942.090332 940.814819,942.086365 
	C813.336060,941.984314 685.857178,941.995361 558.378418,942.073364 
	C555.547180,942.075073 552.733948,943.361389 549.880554,943.539124 
	C547.394165,943.693909 544.856873,943.176025 542.353638,942.862915 
	C540.773376,942.665222 539.225708,942.155823 537.643982,942.029541 
	C528.679688,941.313416 519.483948,941.690125 510.793549,939.767090 
	C497.373077,936.797302 484.246643,932.781128 471.702820,926.531128 
	C453.227295,917.325500 436.450195,905.972595 422.180298,891.216736 
	C414.651581,883.431519 407.938446,874.730042 401.736847,865.829285 
	C396.816406,858.767395 392.498047,851.074829 389.237762,843.119141 
	C384.832550,832.369568 380.750031,821.306763 378.277374,809.996094 
	C375.694885,798.182800 373.830750,786.170044 373.849945,773.822998 
	C374.070221,632.180237 373.930756,490.536835 374.151855,348.894012 
	C374.164032,341.104431 376.373230,333.293060 377.812378,325.538696 
	C379.011963,319.075287 380.358673,312.619904 382.081726,306.280975 
	C382.966064,303.027588 384.863037,300.057007 386.213776,296.920471 
	C387.203827,294.621490 387.909363,292.193512 388.985352,289.939301 
	C392.547272,282.476959 395.658386,274.718903 399.997284,267.729065 
	C404.977692,259.705750 410.406830,251.741928 416.862671,244.905975 
	C426.063873,235.163101 435.655243,225.482407 446.424469,217.615784 
	C456.529327,210.234528 468.147156,204.745514 479.554688,199.394913 
	C486.220184,196.268555 493.714111,194.777893 500.953033,193.042007 
	C507.945892,191.365097 515.105103,190.394653 522.164368,188.979736 
	C544.193542,184.564285 566.451416,187.206207 588.574463,187.149612 
	C716.052429,186.823456 843.531677,186.989395 971.010498,186.993362 
	C979.628296,186.993637 988.016663,188.380554 996.266479,190.904785 
	C999.601379,191.925171 1003.127930,192.325150 1006.572571,192.979370 
	C1017.279541,195.012802 1026.780151,199.900452 1036.604980,204.430206 
	C1048.021606,209.693848 1058.793823,215.833603 1068.093750,223.915298 
	C1081.211792,235.315063 1094.137939,247.172363 1102.993530,262.530426 
	C1108.233765,271.618530 1113.931519,280.515320 1118.283447,290.020172 
	C1121.753784,297.599670 1123.942383,305.862549 1125.898315,314.014404 
	C1128.355591,324.255524 1130.020264,334.688171 1131.955688,345.051453 
	C1132.196533,346.340881 1132.008789,347.711517 1132.008789,349.044556 
	C1132.009766,493.353912 1132.062134,637.663330 1131.852539,781.972412 
	C1131.842163,789.071411 1129.564331,796.170471 1128.306152,803.263062 
	C1127.580200,807.356628 1127.206177,811.575256 1125.932373,815.496765 
	C1122.737183,825.332947 1120.019775,835.479675 1115.444824,844.672913 
	C1109.726929,856.162842 1102.879761,867.201843 1095.484009,877.706055 
	C1090.719116,884.473511 1084.377075,890.239868 1078.225830,895.893494 
	C1071.078369,902.462891 1063.736938,908.953186 1055.776978,914.462646 
	C1049.947754,918.497192 1042.984863,920.893616 1036.080811,923.739868 
	C1051.409058,915.366455 1065.851562,905.397400 1078.448486,892.868286 
	C1110.579102,860.910400 1127.022461,822.118652 1128.903564,776.510132 
	C1128.980469,637.539307 1128.984741,499.030304 1128.982300,360.521301 
	C1128.982300,359.359161 1128.890625,358.197021 1128.921143,356.590820 
	C1128.187988,347.208405 1128.046021,338.148529 1126.452393,329.351685 
	C1116.929199,276.782532 1088.905151,236.997391 1042.587280,210.393005 
	C1017.711853,196.104828 990.587646,189.633301 961.515015,189.088074 
	C823.539917,189.015396 686.027893,189.010361 548.515869,189.012070 
	C547.353699,189.012085 546.191467,189.103088 544.585571,189.072876 
	C535.364380,189.781998 526.477661,189.945923 517.827576,191.460922 
	C468.675537,200.069626 430.333008,225.402725 403.214874,267.263855 
	C385.975708,293.875244 377.878021,323.407227 377.094360,355.490417 
	C377.020782,494.462189 377.014465,632.971436 377.015015,771.480652 
	C377.015045,772.642639 377.108093,773.804688 377.079529,775.399536 
	C377.782990,783.941040 377.995422,792.152588 379.438202,800.141907 
	C389.102600,853.658264 417.655304,893.969421 465.111786,920.543335 
	C485.515686,931.968689 507.556335,938.545349 531.422607,939.976746 
	C532.897949,940.113220 533.979553,940.145203 535.302124,940.376099 
	C535.951599,940.560547 536.360168,940.546021 537.167603,940.674927 
	C540.397705,940.874817 543.228882,940.980469 546.060120,940.980591 
	C684.030762,940.989014 822.001404,940.988831 959.972046,940.982117 
	C961.634583,940.982056 963.297180,940.884338 965.381470,940.902161 
	C985.161926,939.686523 1004.132812,936.559692 1022.249207,929.257568 
	C1026.722778,927.454407 1031.286865,925.875854 1035.809326,924.193970 
z"/>
<path fill="#091A2F" opacity="1.000000" stroke="none" 
	d="
M1035.764404,924.196899 
	C1031.286865,925.875854 1026.722778,927.454407 1022.249207,929.257568 
	C1004.132812,936.559692 985.161926,939.686523 965.063110,940.642334 
	C962.504150,940.209229 960.685425,940.015503 958.866638,940.015320 
	C823.593445,940.000427 688.320190,940.008606 553.046997,939.963440 
	C548.922302,939.962036 544.800354,939.286987 540.671509,939.203430 
	C539.380127,939.177246 538.070129,940.063171 536.768677,940.531494 
	C536.360168,940.546021 535.951599,940.560547 535.113037,940.094116 
	C533.464905,939.699646 532.246826,939.786011 531.028809,939.872314 
	C507.556335,938.545349 485.515686,931.968689 465.111786,920.543335 
	C417.655304,893.969421 389.102600,853.658264 379.438202,800.141907 
	C377.995422,792.152588 377.782990,783.941040 377.342773,775.082520 
	C377.790680,772.848755 377.990265,771.364807 377.990417,769.880859 
	C378.003632,633.352356 378.004700,496.823792 377.965759,360.295258 
	C377.965240,358.539398 377.441528,356.783661 377.162018,355.027863 
	C377.878021,323.407227 385.975708,293.875244 403.214874,267.263855 
	C430.333008,225.402725 468.675537,200.069626 517.827576,191.460922 
	C526.477661,189.945923 535.364380,189.781998 544.902100,189.337280 
	C547.146240,189.788086 548.630066,189.989838 550.113831,189.990005 
	C685.647583,190.004303 821.181274,190.006348 956.715027,189.967896 
	C958.469421,189.967392 960.223694,189.438400 961.978027,189.156067 
	C990.587646,189.633301 1017.711853,196.104828 1042.587280,210.393005 
	C1088.905151,236.997391 1116.929199,276.782532 1126.452393,329.351685 
	C1128.046021,338.148529 1128.187988,347.208405 1128.659424,356.908508 
	C1128.212158,359.487366 1128.013428,361.304474 1128.013184,363.121552 
	C1127.998779,499.148865 1127.996582,635.176147 1128.034424,771.203491 
	C1128.035034,773.126343 1128.553833,775.049133 1128.830688,776.971924 
	C1127.022461,822.118652 1110.579102,860.910400 1078.448486,892.868286 
	C1065.851562,905.397400 1051.409058,915.366455 1035.678711,923.874756 
	C1035.723267,924.289978 1035.719360,924.199829 1035.764404,924.196899 
M766.139709,729.177612 
	C764.445679,729.086121 762.751709,728.994629 760.349182,728.545105 
	C755.891968,728.046448 751.434753,727.547852 746.160400,726.860779 
	C742.437500,726.613220 738.714600,726.365662 734.208679,725.877869 
	C728.827454,725.211487 723.446289,724.545166 717.697388,723.199219 
	C715.519653,722.570068 713.355591,721.888123 711.162048,721.319946 
	C689.773865,715.779602 670.555847,705.899475 652.997009,692.572327 
	C601.488770,653.477783 576.901245,582.711792 595.390015,520.823669 
	C615.370239,453.943085 660.486206,413.498810 729.577820,401.880280 
	C796.134949,390.688019 865.009399,425.765961 896.795715,485.339111 
	C904.842712,500.420502 910.111084,516.448303 913.900574,533.862976 
	C914.671692,548.237610 915.442749,562.612183 915.964905,577.808350 
	C914.745117,585.604309 913.525269,593.400269 912.024353,601.794067 
	C911.469910,603.843018 910.749084,605.863403 910.391541,607.946167 
	C909.188599,614.953125 908.114929,621.982300 906.904114,629.824097 
	C908.714722,645.839478 920.419006,658.691345 936.054077,661.832153 
	C951.653503,664.965820 967.272217,657.783081 975.376221,643.422546 
	C977.912048,635.280640 980.447876,627.138672 983.261597,618.350891 
	C983.165161,617.902771 983.068726,617.454651 983.053589,616.583191 
	C983.053589,616.583191 983.051086,616.152161 983.709778,615.814819 
	C983.785156,614.881897 983.860474,613.948975 984.008301,612.387695 
	C984.019104,611.966187 984.029968,611.544617 984.681641,610.852661 
	C984.833435,610.221375 984.985291,609.590149 985.228882,608.266113 
	C985.174438,607.574585 985.119995,606.882996 985.700623,605.911987 
	C986.783325,597.603455 987.866028,589.294922 989.161377,580.183472 
	C990.602478,561.339722 990.104553,542.596558 986.295837,523.165100 
	C985.790466,520.134644 985.414856,517.075867 984.759949,514.078064 
	C976.065857,474.280151 959.099426,438.335052 931.769897,408.134186 
	C875.462341,345.910797 805.301453,318.815338 721.637207,328.924072 
	C674.195801,334.656219 632.424377,353.985382 596.717896,385.566315 
	C554.715332,422.715912 528.824829,469.242828 519.544800,524.647034 
	C511.475128,572.825195 517.977234,619.240601 538.532471,663.490234 
	C559.106628,707.780518 590.695007,742.348572 632.718445,767.238220 
	C655.210510,780.559875 679.149414,790.296936 705.695007,795.343933 
	C710.792480,796.168579 715.890015,796.993164 721.765991,798.070618 
	C724.172913,798.322998 726.579895,798.575378 729.820312,798.999329 
	C732.865540,799.222473 735.910706,799.445618 739.873962,799.890503 
	C745.579712,799.899719 751.285400,799.908997 757.912170,800.066956 
	C763.590332,799.674011 769.268555,799.281067 775.783691,799.015137 
	C778.510681,798.647827 781.237671,798.280518 784.816040,797.984741 
	C792.888794,796.359924 800.961609,794.735168 809.847351,793.108154 
	C823.279358,788.654053 836.711304,784.199890 850.650208,780.217896 
	C855.432800,787.409241 859.724426,794.992554 865.092773,801.716187 
	C879.502136,819.763550 907.322510,819.422974 921.672913,801.393066 
	C931.665710,788.838074 932.584473,772.103394 923.926575,758.552429 
	C921.324890,754.480408 919.352844,750.554077 913.101196,749.762085 
	C880.765503,745.665161 848.537170,740.730103 816.237488,736.336243 
	C803.584595,734.615112 790.843567,733.542542 777.534546,731.843323 
	C775.355286,731.580261 773.176086,731.317139 770.396240,730.792542 
	C769.250854,730.329712 768.105408,729.866882 766.139709,729.177612 
z"/>
<path fill="#000818" opacity="1.000000" stroke="none" 
	d="
M537.167603,940.674927 
	C538.070129,940.063171 539.380127,939.177246 540.671509,939.203430 
	C544.800354,939.286987 548.922302,939.962036 553.046997,939.963440 
	C688.320190,940.008606 823.593445,940.000427 958.866638,940.015320 
	C960.685425,940.015503 962.504150,940.209229 964.641357,940.572388 
	C963.297180,940.884338 961.634583,940.982056 959.972046,940.982117 
	C822.001404,940.988831 684.030762,940.989014 546.060120,940.980591 
	C543.228882,940.980469 540.397705,940.874817 537.167603,940.674927 
z"/>
<path fill="#000818" opacity="1.000000" stroke="none" 
	d="
M1128.903564,776.510132 
	C1128.553833,775.049133 1128.035034,773.126343 1128.034424,771.203491 
	C1127.996582,635.176147 1127.998779,499.148865 1128.013184,363.121552 
	C1128.013428,361.304474 1128.212158,359.487366 1128.580078,357.352600 
	C1128.890625,358.197021 1128.982300,359.359161 1128.982300,360.521301 
	C1128.984741,499.030304 1128.980469,637.539307 1128.903564,776.510132 
z"/>
<path fill="#000818" opacity="1.000000" stroke="none" 
	d="
M377.094360,355.490417 
	C377.441528,356.783661 377.965240,358.539398 377.965759,360.295258 
	C378.004700,496.823792 378.003632,633.352356 377.990417,769.880859 
	C377.990265,771.364807 377.790680,772.848755 377.420959,774.649658 
	C377.108093,773.804688 377.015045,772.642639 377.015015,771.480652 
	C377.014465,632.971436 377.020782,494.462189 377.094360,355.490417 
z"/>
<path fill="#000818" opacity="1.000000" stroke="none" 
	d="
M961.515015,189.088058 
	C960.223694,189.438400 958.469421,189.967392 956.715027,189.967896 
	C821.181274,190.006348 685.647583,190.004303 550.113831,189.990005 
	C548.630066,189.989838 547.146240,189.788086 545.345886,189.416031 
	C546.191467,189.103088 547.353699,189.012085 548.515869,189.012070 
	C686.027893,189.010361 823.539917,189.015396 961.515015,189.088058 
z"/>
<path fill="#000818" opacity="1.000000" stroke="none" 
	d="
M531.422607,939.976807 
	C532.246826,939.786011 533.464905,939.699646 534.872009,939.895264 
	C533.979553,940.145203 532.897949,940.113220 531.422607,939.976807 
z"/>
<path fill="#FEFEFE" opacity="1.000000" stroke="none" 
	d="
M704.995728,794.967957 
	C679.149414,790.296936 655.210510,780.559875 632.718445,767.238220 
	C590.695007,742.348572 559.106628,707.780518 538.532471,663.490234 
	C517.977234,619.240601 511.475128,572.825195 519.544800,524.647034 
	C528.824829,469.242828 554.715332,422.715912 596.717896,385.566315 
	C632.424377,353.985382 674.195801,334.656219 721.637207,328.924072 
	C805.301453,318.815338 875.462341,345.910797 931.769897,408.134186 
	C959.099426,438.335052 976.065857,474.280151 984.759949,514.078064 
	C985.414856,517.075867 985.790466,520.134644 985.871277,523.555298 
	C981.909668,523.709229 978.258484,522.790955 974.856445,523.360657 
	C963.385864,525.281738 951.609009,522.481262 940.151611,527.583801 
	C932.208801,531.121155 922.775940,531.312805 914.008789,532.999268 
	C910.111084,516.448303 904.842712,500.420502 896.795715,485.339111 
	C865.009399,425.765961 796.134949,390.688019 729.577820,401.880280 
	C660.486206,413.498810 615.370239,453.943085 595.390015,520.823669 
	C576.901245,582.711792 601.488770,653.477783 652.997009,692.572327 
	C670.555847,705.899475 689.773865,715.779602 711.162048,721.319946 
	C713.355591,721.888123 715.519653,722.570068 717.688721,723.828857 
	C716.997131,725.741272 716.105652,726.960144 715.687195,728.324158 
	C715.224915,729.831360 715.481262,731.579651 714.929565,733.035400 
	C712.282471,740.020630 712.978027,748.044922 708.189575,754.400208 
	C707.540466,755.261658 708.100403,756.993469 707.998352,758.314392 
	C707.327637,766.991699 706.644592,775.668091 705.912659,784.340332 
	C705.845459,785.136597 705.613281,786.088135 705.105774,786.649231 
	C702.585022,789.436218 702.795776,792.166260 704.995728,794.967957 
z"/>
<path fill="#FCFDFD" opacity="1.000000" stroke="none" 
	d="
M778.142639,732.174500 
	C790.843567,733.542542 803.584595,734.615112 816.237488,736.336243 
	C848.537170,740.730103 880.765503,745.665161 913.101196,749.762085 
	C919.352844,750.554077 921.324890,754.480408 923.926575,758.552429 
	C932.584473,772.103394 931.665710,788.838074 921.672913,801.393066 
	C907.322510,819.422974 879.502136,819.763550 865.092773,801.716187 
	C859.724426,794.992554 855.432800,787.409241 850.294739,779.660950 
	C844.032654,772.213928 838.668701,764.743408 832.080078,758.582764 
	C824.114380,751.134338 815.102234,744.810852 804.052917,741.598022 
	C795.296021,738.246521 786.719360,735.210510 778.142639,732.174500 
z"/>
<path fill="#F3F3F4" opacity="1.000000" stroke="none" 
	d="
M913.954712,533.431152 
	C922.775940,531.312805 932.208801,531.121155 940.151611,527.583801 
	C951.609009,522.481262 963.385864,525.281738 974.856445,523.360657 
	C978.258484,522.790955 981.909668,523.709229 985.847717,523.986572 
	C990.104553,542.596558 990.602478,561.339722 988.769958,580.284424 
	C988.250793,577.243530 987.681274,574.041626 988.099182,570.974182 
	C988.721252,566.407898 985.692566,565.114929 982.562500,564.200562 
	C979.745239,563.377441 976.691895,563.078918 973.738342,563.053894 
	C960.261230,562.939575 946.776062,562.763489 933.307800,563.126831 
	C928.272949,563.262695 923.212463,565.495544 918.001221,559.724609 
	C918.001221,565.395020 918.157898,569.175476 917.919128,572.930908 
	C917.831238,574.313416 916.809631,575.636536 916.213867,576.986816 
	C915.442749,562.612183 914.671692,548.237610 913.954712,533.431152 
M973.208984,559.489380 
	C974.198669,559.862854 975.188293,560.236389 976.177979,560.609863 
	C976.334534,560.050659 976.491089,559.491516 976.647644,558.932312 
	C975.561829,558.883179 974.475952,558.833984 973.208984,559.489380 
M982.597900,558.802124 
	C982.210693,558.797852 981.823425,558.793579 981.436279,558.789307 
	C981.434631,558.950012 981.422180,559.250305 981.432922,559.251160 
	C981.818237,559.281006 982.205688,559.282898 982.597900,558.802124 
z"/>
<path fill="#DDDEDE" opacity="1.000000" stroke="none" 
	d="
M982.983643,618.996765 
	C980.447876,627.138672 977.912048,635.280640 974.885986,643.450989 
	C975.451172,639.638611 976.506653,635.797791 977.621399,631.741028 
	C976.478333,631.835876 975.507629,632.041443 974.556091,631.974487 
	C969.442078,631.614685 964.076355,633.404480 959.614746,628.633057 
	C957.464600,626.333496 953.858948,625.131470 950.695801,624.090820 
	C940.386536,620.699158 929.914917,617.795837 919.635071,614.321838 
	C915.002197,612.756287 911.202393,613.921997 909.666077,618.656372 
	C908.568604,622.038391 907.869019,625.549500 906.991821,629.002991 
	C908.114929,621.982300 909.188599,614.953125 910.391541,607.946167 
	C910.749084,605.863403 911.469910,603.843018 912.553711,601.317749 
	C914.690857,595.371155 916.298645,589.900940 918.015503,584.059814 
	C921.682983,590.269287 921.963562,591.048889 925.342407,589.832886 
	C933.373535,586.942871 941.370544,589.588806 949.350647,589.063293 
	C953.887512,588.764526 958.535828,588.306641 962.415283,592.016724 
	C963.485901,593.040649 965.879822,593.064697 967.619324,592.931396 
	C972.308777,592.572083 976.468445,593.062012 979.154297,597.595337 
	C979.637512,598.410828 980.485962,599.265015 981.349365,599.555176 
	C984.682678,600.675476 985.371948,603.117432 985.065552,606.191467 
	C985.119995,606.882996 985.174438,607.574585 984.907471,608.785645 
	C984.404297,609.911194 984.222534,610.517151 984.040771,611.123108 
	C984.029968,611.544617 984.019104,611.966187 983.712769,612.926392 
	C983.295166,614.360840 983.173096,615.256470 983.051086,616.152161 
	C983.051086,616.152161 983.053589,616.583191 982.786133,616.937012 
	C982.673706,617.859436 982.828674,618.428101 982.983643,618.996765 
z"/>
<path fill="#D2D3D3" opacity="1.000000" stroke="none" 
	d="
M906.947998,629.413574 
	C907.869019,625.549500 908.568604,622.038391 909.666077,618.656372 
	C911.202393,613.921997 915.002197,612.756287 919.635071,614.321838 
	C929.914917,617.795837 940.386536,620.699158 950.695801,624.090820 
	C953.858948,625.131470 957.464600,626.333496 959.614746,628.633057 
	C964.076355,633.404480 969.442078,631.614685 974.556091,631.974487 
	C975.507629,632.041443 976.478333,631.835876 977.621399,631.741028 
	C976.506653,635.797791 975.451172,639.638611 974.656616,643.719482 
	C967.272217,657.783081 951.653503,664.965820 936.054077,661.832153 
	C920.419006,658.691345 908.714722,645.839478 906.947998,629.413574 
z"/>
<path fill="#E9E9E9" opacity="1.000000" stroke="none" 
	d="
M985.383057,606.051758 
	C985.371948,603.117432 984.682678,600.675476 981.349365,599.555176 
	C980.485962,599.265015 979.637512,598.410828 979.154297,597.595337 
	C976.468445,593.062012 972.308777,592.572083 967.619324,592.931396 
	C965.879822,593.064697 963.485901,593.040649 962.415283,592.016724 
	C958.535828,588.306641 953.887512,588.764526 949.350647,589.063293 
	C941.370544,589.588806 933.373535,586.942871 925.342407,589.832886 
	C921.963562,591.048889 921.682983,590.269287 918.015503,584.059814 
	C916.298645,589.900940 914.690857,595.371155 912.694214,601.018799 
	C913.525269,593.400269 914.745117,585.604309 916.089355,577.397583 
	C916.809631,575.636536 917.831238,574.313416 917.919128,572.930908 
	C918.157898,569.175476 918.001221,565.395020 918.001221,559.724609 
	C923.212463,565.495544 928.272949,563.262695 933.307800,563.126831 
	C946.776062,562.763489 960.261230,562.939575 973.738342,563.053894 
	C976.691895,563.078918 979.745239,563.377441 982.562500,564.200562 
	C985.692566,565.114929 988.721252,566.407898 988.099182,570.974182 
	C987.681274,574.041626 988.250793,577.243530 988.663574,580.685852 
	C987.866028,589.294922 986.783325,597.603455 985.383057,606.051758 
z"/>
<path fill="#909090" opacity="1.000000" stroke="none" 
	d="
M777.838623,732.008911 
	C786.719360,735.210510 795.296021,738.246521 803.682373,741.631104 
	C802.874390,742.498169 801.721191,743.020142 801.724548,743.534668 
	C801.749451,747.333252 802.064575,751.128601 802.170898,754.928284 
	C802.276978,758.717712 801.550903,762.678284 802.415039,766.268982 
	C804.455566,774.748230 803.815735,783.947754 808.926270,791.641602 
	C809.162964,791.997864 809.007324,792.614807 809.034363,793.110352 
	C800.961609,794.735168 792.888794,796.359924 784.128845,797.688232 
	C781.834106,797.126038 780.226501,796.860474 778.388062,796.556702 
	C777.878418,790.752625 777.455994,785.032837 776.858826,779.331360 
	C775.620544,767.508728 774.859924,755.590027 772.699219,743.933960 
	C771.900574,739.625427 775.980591,734.655823 770.996826,731.054016 
	C773.176086,731.317139 775.355286,731.580261 777.838623,732.008911 
z"/>
<path fill="#979898" opacity="1.000000" stroke="none" 
	d="
M809.440857,793.109253 
	C809.007324,792.614807 809.162964,791.997864 808.926270,791.641602 
	C803.815735,783.947754 804.455566,774.748230 802.415039,766.268982 
	C801.550903,762.678284 802.276978,758.717712 802.170898,754.928284 
	C802.064575,751.128601 801.749451,747.333252 801.724548,743.534668 
	C801.721191,743.020142 802.874390,742.498169 803.862671,741.946533 
	C815.102234,744.810852 824.114380,751.134338 832.080078,758.582764 
	C838.668701,764.743408 844.032654,772.213928 850.041260,779.424927 
	C836.711304,784.199890 823.279358,788.654053 809.440857,793.109253 
z"/>
<path fill="#B9BABB" opacity="1.000000" stroke="none" 
	d="
M756.991150,799.918213 
	C751.285400,799.908997 745.579712,799.899719 739.324158,799.451416 
	C737.687988,798.387085 736.601624,797.761719 735.474731,797.113098 
	C737.280212,787.872620 736.172363,778.534485 738.408569,769.004333 
	C741.489136,755.875732 740.393921,741.767273 741.480286,728.071899 
	C743.574524,727.726562 745.276001,727.387939 746.977539,727.049255 
	C751.434753,727.547852 755.891968,728.046448 760.586426,728.959106 
	C760.552612,729.586182 760.281555,729.799194 759.673767,730.007202 
	C758.888184,730.004395 758.439209,730.006592 757.771606,730.115540 
	C757.279114,730.419373 757.091797,730.678894 756.609619,731.053223 
	C755.153015,734.862183 753.236572,738.599487 753.149841,742.378784 
	C752.795776,757.813477 753.088196,773.261658 752.944214,788.703064 
	C752.903625,793.062561 752.526794,797.295349 756.991150,799.918213 
z"/>
<path fill="#E9E9E9" opacity="1.000000" stroke="none" 
	d="
M705.345337,795.155945 
	C702.795776,792.166260 702.585022,789.436218 705.105774,786.649231 
	C705.613281,786.088135 705.845459,785.136597 705.912659,784.340332 
	C706.644592,775.668091 707.327637,766.991699 707.998352,758.314392 
	C708.100403,756.993469 707.540466,755.261658 708.189575,754.400208 
	C712.978027,748.044922 712.282471,740.020630 714.929565,733.035400 
	C715.481262,731.579651 715.224915,729.831360 715.687195,728.324158 
	C716.105652,726.960144 716.997131,725.741272 717.872559,724.168640 
	C723.446289,724.545166 728.827454,725.211487 734.598755,726.302979 
	C734.979248,727.134033 734.969604,727.539917 734.626099,727.950867 
	C733.846375,727.961853 733.400452,727.967712 732.599365,727.811523 
	C729.256775,727.055176 725.864197,725.368286 725.019531,730.414490 
	C724.400452,734.113281 723.743469,737.805786 723.092773,741.499207 
	C721.102661,752.795166 719.102295,764.089294 717.116943,775.386108 
	C716.464111,779.100891 716.194885,782.926147 715.122925,786.513428 
	C713.745178,791.124023 714.609436,793.782410 719.008118,796.015625 
	C719.775146,796.405090 720.333008,797.206604 720.987488,797.817810 
	C715.890015,796.993164 710.792480,796.168579 705.345337,795.155945 
M708.478577,794.577209 
	C708.478577,794.577209 708.413635,794.471497 708.478577,794.577209 
z"/>
<path fill="#DDDEDE" opacity="1.000000" stroke="none" 
	d="
M721.376709,797.944214 
	C720.333008,797.206604 719.775146,796.405090 719.008118,796.015625 
	C714.609436,793.782410 713.745178,791.124023 715.122925,786.513428 
	C716.194885,782.926147 716.464111,779.100891 717.116943,775.386108 
	C719.102295,764.089294 721.102661,752.795166 723.092773,741.499207 
	C723.743469,737.805786 724.400452,734.113281 725.019531,730.414490 
	C725.864197,725.368286 729.256775,727.055176 732.658691,728.198975 
	C733.270325,730.356140 734.036377,732.159119 733.563416,733.536682 
	C731.768921,738.763367 731.844604,743.985413 731.712769,749.455811 
	C731.463135,759.817383 729.250610,770.115479 728.448669,780.486023 
	C727.979248,786.555969 726.486938,792.792114 728.986816,798.827759 
	C726.579895,798.575378 724.172913,798.322998 721.376709,797.944214 
z"/>
<path fill="#D2D3D3" opacity="1.000000" stroke="none" 
	d="
M729.403564,798.913574 
	C726.486938,792.792114 727.979248,786.555969 728.448669,780.486023 
	C729.250610,770.115479 731.463135,759.817383 731.712769,749.455811 
	C731.844604,743.985413 731.768921,738.763367 733.563416,733.536682 
	C734.036377,732.159119 733.270325,730.356140 733.013916,728.361023 
	C733.400452,727.967712 733.846375,727.961853 735.063232,727.969238 
	C737.585388,728.014526 739.336426,728.046570 741.087524,728.078613 
	C740.393921,741.767273 741.489136,755.875732 738.408569,769.004333 
	C736.172363,778.534485 737.280212,787.872620 735.474731,797.113098 
	C736.601624,797.761719 737.687988,798.387085 738.865112,799.340576 
	C735.910706,799.445618 732.865540,799.222473 729.403564,798.913574 
z"/>
<path fill="#AFAFB0" opacity="1.000000" stroke="none" 
	d="
M757.451660,799.992554 
	C752.526794,797.295349 752.903625,793.062561 752.944214,788.703064 
	C753.088196,773.261658 752.795776,757.813477 753.149841,742.378784 
	C753.236572,738.599487 755.153015,734.862183 756.828308,730.945862 
	C757.703369,730.590393 757.890625,730.331299 757.990295,730.008789 
	C758.439209,730.006592 758.888184,730.004395 759.669067,730.474487 
	C760.333984,751.004333 760.695190,771.061523 760.984497,791.119751 
	C761.084473,798.051819 761.002808,798.052979 768.451782,797.957520 
	C770.890625,798.271118 772.918640,798.579590 774.946716,798.888062 
	C769.268555,799.281067 763.590332,799.674011 757.451660,799.992554 
z"/>
<path fill="#979898" opacity="1.000000" stroke="none" 
	d="
M775.365234,798.951599 
	C772.918640,798.579590 770.890625,798.271118 768.449463,797.540039 
	C768.358337,794.163330 768.998779,791.203125 768.942627,788.256226 
	C768.775146,779.466064 768.470032,770.673096 767.952820,761.896912 
	C767.603271,755.965332 766.284790,750.052856 766.368164,744.145508 
	C766.437134,739.252380 763.358459,734.145935 766.960022,729.404114 
	C768.105408,729.866882 769.250854,730.329712 770.696533,730.923279 
	C775.980591,734.655823 771.900574,739.625427 772.699219,743.933960 
	C774.859924,755.590027 775.620544,767.508728 776.858826,779.331360 
	C777.455994,785.032837 777.878418,790.752625 778.388062,796.556702 
	C780.226501,796.860474 781.834106,797.126038 783.703125,797.652405 
	C781.237671,798.280518 778.510681,798.647827 775.365234,798.951599 
z"/>
<path fill="#A5A4A4" opacity="1.000000" stroke="none" 
	d="
M766.549866,729.290894 
	C763.358459,734.145935 766.437134,739.252380 766.368164,744.145508 
	C766.284790,750.052856 767.603271,755.965332 767.952820,761.896912 
	C768.470032,770.673096 768.775146,779.466064 768.942627,788.256226 
	C768.998779,791.203125 768.358337,794.163330 768.038635,797.534912 
	C761.002808,798.052979 761.084473,798.051819 760.984497,791.119751 
	C760.695190,771.061523 760.333984,751.004333 760.005737,730.479492 
	C760.281555,729.799194 760.552612,729.586182 760.940674,729.138123 
	C762.751709,728.994629 764.445679,729.086121 766.549866,729.290894 
z"/>
<path fill="#DDDEDE" opacity="1.000000" stroke="none" 
	d="
M741.480225,728.071899 
	C739.336426,728.046570 737.585388,728.014526 735.397095,727.964111 
	C734.969604,727.539917 734.979248,727.134033 734.990295,726.423096 
	C738.714600,726.365662 742.437500,726.613220 746.568970,726.955017 
	C745.276001,727.387939 743.574524,727.726562 741.480225,728.071899 
z"/>
<path fill="#E9E9E9" opacity="1.000000" stroke="none" 
	d="
M983.380432,615.983521 
	C983.173096,615.256470 983.295166,614.360840 983.676514,613.240601 
	C983.860474,613.948975 983.785156,614.881897 983.380432,615.983521 
z"/>
<path fill="#E9E9E9" opacity="1.000000" stroke="none" 
	d="
M984.361206,610.987915 
	C984.222534,610.517151 984.404297,609.911194 984.861633,609.132080 
	C984.985291,609.590149 984.833435,610.221375 984.361206,610.987915 
z"/>
<path fill="#E9E9E9" opacity="1.000000" stroke="none" 
	d="
M983.122681,618.673828 
	C982.828674,618.428101 982.673706,617.859436 982.745483,617.148682 
	C983.068726,617.454651 983.165161,617.902771 983.122681,618.673828 
z"/>
<path fill="#E9E9E9" opacity="1.000000" stroke="none" 
	d="
M973.299561,559.137085 
	C974.475952,558.833984 975.561829,558.883179 976.647644,558.932312 
	C976.491089,559.491516 976.334534,560.050659 976.177979,560.609863 
	C975.188293,560.236389 974.198669,559.862854 973.299561,559.137085 
z"/>
<path fill="#E9E9E9" opacity="1.000000" stroke="none" 
	d="
M982.595398,559.045410 
	C982.205688,559.282898 981.818237,559.281006 981.432922,559.251160 
	C981.422180,559.250305 981.434631,558.950012 981.436279,558.789307 
	C981.823425,558.793579 982.210693,558.797852 982.595398,559.045410 
z"/>
<path fill="#A5A4A4" opacity="1.000000" stroke="none" 
	d="
M757.771606,730.115601 
	C757.890625,730.331299 757.703369,730.590393 757.209717,730.893555 
	C757.091797,730.678894 757.279114,730.419373 757.771606,730.115601 
z"/>
<path fill="#FEFEFE" opacity="1.000000" stroke="none" 
	d="
M708.446106,794.524353 
	C708.413635,794.471497 708.478577,794.577209 708.446106,794.524353 
z"/>
</svg>